<svg xmlns="http://www.w3.org/2000/svg" viewBox="0 0 24 24" width="24" height="24">
  <path d="M22.23 0H1.77C.79 0 0 .77 0 1.72v20.56C0 23.23.79 24 1.77 24h20.46c.98 0 1.77-.77 1.77-1.72V1.72C24 .77 23.21 0 22.23 0zM7.06 20.45H3.56V9h3.5v11.45zM5.31 7.5c-1.12 0-2.03-.91-2.03-2.03s.91-2.03 2.03-2.03 2.03.91 2.03 2.03-.91 2.03-2.03 2.03zM20.45 20.45h-3.5v-5.6c0-1.34-.03-3.07-1.87-3.07-1.87 0-2.16 1.46-2.16 2.97v5.7h-3.5V9h3.36v1.56h.05c.47-.89 1.61-1.83 3.31-1.83 3.54 0 4.19 2.33 4.19 5.36v6.36z"/>
</svg>